# xmcd
#
# Track frame offsets: 
#        150
#        15608
#        33787
#        49467
#        67766
#        84692
#        99915
#        116679
#        131383
#        146491
#        161190
#        175918
#
# Disc length: 2558 seconds
#
# Revision: 0
# Processed by: cddbd v1.5.2PL0 Copyright (c) Steve Scherf et al.
# Submitted via: ExactAudioCopy v0.99pb5
#
DISCID=9909fc0c
DTITLE=Los Lonely Boys - Revelation
DYEAR=2013
DGENRE=Blues
TTITLE0=Blame It On Love
TTITLE1=Give A Little More
TTITLE2=It's Just My Heart Talkin'
TTITLE3=There's Always Tomorrow
TTITLE4=So Sensual
TTITLE5=See The Light
TTITLE6=Don't Walk Away
TTITLE7=Can't Slow Down
TTITLE8=Dream Away
TTITLE9=The Greatest Ever
TTITLE10=Rule The World
TTITLE11=Everything About You
EXTD=
EXTT0=
EXTT1=
EXTT2=
EXTT3=
EXTT4=
EXTT5=
EXTT6=
EXTT7=
EXTT8=
EXTT9=
EXTT10=
EXTT11=
PLAYORDER=
